# Blender 3.6.0
# www.blender.org
mtllib arrow.mtl
o Cone
v 0.029665 0.993485 -0.097986
v 0.080472 0.993556 -0.066172
v 0.103606 0.993532 0.010224
v 0.066042 0.993556 0.080630
v 0.010017 0.993482 0.101903
v -0.029665 0.993485 0.097986
v -0.080472 0.993556 0.066172
v -0.101703 0.993482 0.010037
v -0.097794 0.993485 -0.029724
v -0.066042 0.993556 -0.080630
v -0.010017 0.993482 -0.101903
v 0.000000 1.506621 0.000000
vn 0.0964 0.1921 -0.9766
vn 0.5210 0.1891 -0.8324
vn 0.9407 0.1843 -0.2848
vn 0.8672 0.1843 0.4626
vn 0.3483 0.1891 0.9181
vn -0.0964 0.1921 0.9766
vn -0.5210 0.1891 0.8324
vn -0.9186 0.1889 0.3472
vn -0.9767 0.1917 -0.0960
vn -0.8333 0.1889 -0.5195
vn -0.3483 0.1891 -0.9181
vn 0.0001 -1.0000 -0.0004
vn 0.0002 -1.0000 -0.0029
vn -0.0029 -1.0000 0.0024
vn 0.0025 -1.0000 0.0002
vn -0.0002 -1.0000 0.0029
vn 0.0019 -1.0000 -0.0009
vn 0.0009 -1.0000 0.0008
vn 0.0007 -1.0000 -0.0005
vn -0.0006 -1.0000 0.0008
vt 0.226589 0.487694
vt 0.250000 0.250000
vt 0.319333 0.478560
vt 0.431082 0.398610
vt 0.483127 0.227039
vt 0.398610 0.068918
vt 0.273411 0.012306
vt 0.180667 0.021440
vt 0.068918 0.101390
vt 0.012306 0.226589
vt 0.021440 0.319333
vt 0.101390 0.431082
vt 0.680667 0.021440
vt 0.601390 0.431082
vt 0.983127 0.227039
vt 0.898610 0.068918
vt 0.773411 0.012306
vt 0.568918 0.101390
vt 0.512306 0.226589
vt 0.521440 0.319333
vt 0.726589 0.487694
vt 0.819333 0.478560
vt 0.931082 0.398610
s 0
f 11/1/1 12/2/1 1/3/1
f 1/3/2 12/2/2 2/4/2
f 2/4/3 12/2/3 3/5/3
f 3/5/4 12/2/4 4/6/4
f 4/6/5 12/2/5 5/7/5
f 5/7/6 12/2/6 6/8/6
f 6/8/7 12/2/7 7/9/7
f 7/9/8 12/2/8 8/10/8
f 8/10/9 12/2/9 9/11/9
f 9/11/10 12/2/10 10/12/10
f 10/12/11 12/2/11 11/1/11
f 6/13/12 10/14/12 3/15/12
f 4/16/13 5/17/13 6/13/13
f 6/13/14 7/18/14 8/19/14
f 8/19/15 9/20/15 10/14/15
f 10/14/16 11/21/16 1/22/16
f 1/22/17 2/23/17 3/15/17
f 3/15/18 4/16/18 6/13/18
f 6/13/19 8/19/19 10/14/19
f 10/14/20 1/22/20 3/15/20
o Cylinder
v 0.001280 1.000719 -0.051560
v 0.027524 -0.000107 -0.043583
v 0.024864 1.000719 -0.044704
v 0.043497 1.000719 -0.027578
v 0.044616 -0.000107 -0.024913
v 0.051458 -0.000107 -0.001283
v 0.051458 1.000719 0.001283
v 0.036169 1.000719 0.038473
v 0.038398 -0.000107 0.036241
v 0.001280 -0.000107 0.051560
v -0.001280 1.000719 0.051560
v -0.027524 -0.000107 0.043583
v -0.024864 1.000719 0.044704
v -0.043497 1.000719 0.027578
v -0.044616 -0.000107 0.024913
v -0.051458 -0.000107 0.001283
v -0.051458 1.000719 -0.001283
v -0.036169 1.000719 -0.038473
v -0.038398 -0.000107 -0.036241
v -0.001280 -0.000107 -0.051560
vn 0.7376 -0.0010 -0.6752
vn -0.7376 -0.0010 0.6752
vn 0.9605 0.0007 -0.2781
vn 0.6767 0.0010 -0.7363
vn 0.9249 0.0012 0.3802
vn 0.3299 0.0008 0.9440
vn -0.2669 -0.0004 0.9637
vn -0.9605 0.0007 0.2781
vn -0.6767 0.0010 0.7363
vn -0.9249 0.0012 -0.3802
vn -0.0000 1.0000 -0.0000
vn 0.2669 -0.0004 -0.9637
vn -0.3299 0.0008 -0.9440
vn -0.0000 -1.0000 -0.0000
vn 0.9640 0.0004 -0.2659
vn 0.9444 -0.0008 0.3287
vn 0.3815 -0.0012 0.9244
vn -0.2791 -0.0007 0.9603
vn -0.9640 0.0004 0.2659
vn -0.9444 -0.0008 -0.3287
vn 0.2791 -0.0007 -0.9603
vn -0.3815 -0.0012 -0.9244
vt 0.839652 1.000000
vt 0.830933 0.500000
vt 0.910348 0.500000
vt 0.339652 1.000000
vt 0.330933 0.500000
vt 0.410348 0.500000
vt 0.746097 1.000000
vt 0.753903 0.500000
vt 0.919067 1.000000
vt 0.630190 0.500000
vt 0.619810 1.000000
vt 0.503903 0.500000
vt 0.496097 1.000000
vt 0.419067 1.000000
vt 0.246097 1.000000
vt 0.253903 0.500000
vt 0.130190 0.500000
vt 0.119810 1.000000
vt 0.366318 0.458649
vt 0.049752 0.123582
vt 0.244152 0.012924
vt 0.987183 0.500000
vt 0.011857 0.500000
vt 0.012817 1.000000
vt 0.512923 0.244152
vt 0.958649 0.366318
vt 0.918376 0.092355
vt 0.407645 0.081624
vt 0.487077 0.244152
vt 0.450248 0.376418
vt 0.255848 0.487077
vt 0.092355 0.418376
vt 0.012924 0.255848
vt 0.133682 0.041351
vt 0.988143 1.000000
vt 0.755848 0.012924
vt 0.623582 0.049752
vt 0.541351 0.133682
vt 0.581624 0.407645
vt 0.744152 0.487077
vt 0.876418 0.450248
vt 0.987076 0.255848
s 0
f 16/24/21 17/25/21 14/26/21
f 26/27/22 27/28/22 24/29/22
f 17/25/23 19/30/23 18/31/23
f 15/32/24 16/24/24 14/26/24
f 21/33/25 19/30/25 20/34/25
f 22/35/26 20/34/26 23/36/26
f 22/35/27 25/37/27 24/29/27
f 27/28/28 29/38/28 28/39/28
f 25/37/29 26/27/29 24/29/29
f 31/40/30 29/38/30 30/41/30
f 15/42/31 26/43/31 23/44/31
f 32/45/32 15/32/32 14/26/32
f 32/46/33 30/41/33 13/47/33
f 28/48/34 17/49/34 21/50/34
f 17/25/35 16/24/35 19/30/35
f 21/33/36 18/31/36 19/30/36
f 22/35/37 21/33/37 20/34/37
f 22/35/38 23/36/38 25/37/38
f 27/28/39 26/27/39 29/38/39
f 31/40/40 28/39/40 29/38/40
f 23/44/31 20/51/31 19/52/31
f 19/52/31 16/53/31 15/42/31
f 15/42/31 13/54/31 30/55/31
f 30/55/31 29/56/31 26/43/31
f 26/43/31 25/57/31 23/44/31
f 23/44/31 19/52/31 15/42/31
f 15/42/31 30/55/31 26/43/31
f 32/45/41 13/58/41 15/32/41
f 32/46/42 31/40/42 30/41/42
f 21/50/34 22/59/34 24/60/34
f 24/60/34 27/61/34 28/48/34
f 28/48/34 31/62/34 32/63/34
f 32/63/34 14/64/34 17/49/34
f 17/49/34 18/65/34 21/50/34
f 21/50/34 24/60/34 28/48/34
f 28/48/34 32/63/34 17/49/34
